<svg version="1.1" id="Layer_1" xmlns="http://www.w3.org/2000/svg" xmlns:xlink="http://www.w3.org/1999/xlink" x="0px" y="0px"
	 viewBox="0 0 306.1 93.3" style="enable-background:new 0 0 306.1 93.3;" xml:space="preserve">
<style type="text/css">
	.st0{fill:#DCE5D3;stroke:#758173;stroke-miterlimit:10;}
	.st1{fill:none;stroke:#758173;stroke-width:2;stroke-miterlimit:10;}
	.st2{fill:#758173;}
	.st3{font-family:'Raleway';}
	.st4{font-size:52.8919px;}
	.st5{fill:none;stroke:#758173;stroke-miterlimit:10;}
</style>
<path class="st0" d="M63,39.1c0,0-4.3-46.3-57.5-20.4C5.5,18.6,26.4,41.5,63,39.1z"/>
<path class="st1" d="M81,35.5c37.6,16.8,45.2-4,45.2-4c5.4-9.2,0-20.6,0-20.6c-4-8.5-18.8-6.9-18.8-6.9c-37.8,6-32.5,85.8-32.5,85.8
	"/>
<path class="st1" d="M100.4,24.2c0,0-11.4,21-11.2,63.4c0,0,12.1,2.5,28.6,0"/>
<text transform="matrix(1 0 0 1 97.7076 77.9452)" class="st2 st3 st4">antStore</text>
<path class="st5" d="M42.7,22.9c0,0,29.1,1.1,31.4,66.7"/>
</svg>
